<mxfile host="app.diagrams.net" modified="2023-05-08T21:11:57.813Z" agent="Mozilla/5.0 (Windows NT 10.0; Win64; x64) AppleWebKit/537.36 (KHTML, like Gecko) Chrome/111.0.0.0 Safari/537.36 OPR/97.0.0.0" etag="eOw2K_VJ_b1O8dXoLCrZ" version="21.2.9" type="github">
  <diagram name="Página-1" id="iPTbNvzDOH2_BM-JXi3v">
    <mxGraphModel dx="3224" dy="3612" grid="1" gridSize="10" guides="1" tooltips="1" connect="1" arrows="1" fold="1" page="1" pageScale="1" pageWidth="827" pageHeight="1169" math="0" shadow="0">
      <root>
        <mxCell id="0" />
        <mxCell id="1" parent="0" />
        <mxCell id="RScEIYHvd4wHRLP2RLor-82" value="" style="rounded=0;whiteSpace=wrap;html=1;" vertex="1" parent="1">
          <mxGeometry x="-340" y="-1260" width="1740" height="1260" as="geometry" />
        </mxCell>
        <mxCell id="RScEIYHvd4wHRLP2RLor-1" value="CASTOR&lt;br style=&quot;font-size: 16px;&quot;&gt;192.168.11.186&lt;font face=&quot;Lucida Console&quot; style=&quot;font-size: 16px;&quot;&gt;&lt;br style=&quot;font-size: 16px;&quot;&gt;&lt;/font&gt;" style="image;aspect=fixed;html=1;points=[];align=center;fontSize=16;image=img/lib/azure2/databases/SQL_Server.svg;labelBorderColor=none;fontStyle=1" vertex="1" parent="1">
          <mxGeometry x="556.5" y="-200" width="68" height="68" as="geometry" />
        </mxCell>
        <mxCell id="RScEIYHvd4wHRLP2RLor-2" value="APOLO&lt;br&gt;192.168.11.181" style="image;aspect=fixed;html=1;points=[];align=center;fontSize=16;image=img/lib/azure2/databases/SQL_Server.svg;fontStyle=1" vertex="1" parent="1">
          <mxGeometry x="543" y="-665" width="68" height="68" as="geometry" />
        </mxCell>
        <mxCell id="RScEIYHvd4wHRLP2RLor-3" value="POLUX&lt;br&gt;192.168.11.187" style="image;aspect=fixed;html=1;points=[];align=center;fontSize=16;image=img/lib/azure2/databases/SQL_Server.svg;fontStyle=1" vertex="1" parent="1">
          <mxGeometry x="1138" y="-670" width="68" height="68" as="geometry" />
        </mxCell>
        <mxCell id="RScEIYHvd4wHRLP2RLor-4" value="ARTEMIS&lt;br&gt;192.168.11.183" style="image;aspect=fixed;html=1;points=[];align=center;fontSize=16;image=img/lib/azure2/databases/SQL_Server.svg;fontStyle=1" vertex="1" parent="1">
          <mxGeometry x="-80" y="-666" width="68" height="68" as="geometry" />
        </mxCell>
        <mxCell id="RScEIYHvd4wHRLP2RLor-5" value="SPODBBI01&lt;br&gt;192.168.11.197" style="image;aspect=fixed;html=1;points=[];align=center;fontSize=16;image=img/lib/azure2/databases/SQL_Server.svg;fontStyle=1" vertex="1" parent="1">
          <mxGeometry x="-130" y="-1056" width="68" height="68" as="geometry" />
        </mxCell>
        <mxCell id="RScEIYHvd4wHRLP2RLor-6" value="SPODBI01&lt;br&gt;192.168.11.130" style="image;aspect=fixed;html=1;points=[];align=center;fontSize=16;image=img/lib/azure2/databases/SQL_Server.svg;fontStyle=1" vertex="1" parent="1">
          <mxGeometry x="1135" y="-1055" width="68" height="68" as="geometry" />
        </mxCell>
        <mxCell id="RScEIYHvd4wHRLP2RLor-63" style="edgeStyle=orthogonalEdgeStyle;rounded=0;orthogonalLoop=1;jettySize=auto;html=1;" edge="1" parent="1" source="RScEIYHvd4wHRLP2RLor-12" target="RScEIYHvd4wHRLP2RLor-55">
          <mxGeometry relative="1" as="geometry" />
        </mxCell>
        <mxCell id="RScEIYHvd4wHRLP2RLor-12" value="ERP" style="sketch=0;aspect=fixed;pointerEvents=1;shadow=0;dashed=0;html=1;strokeColor=none;labelPosition=center;verticalLabelPosition=top;verticalAlign=bottom;align=center;fillColor=#000000;shape=mxgraph.mscae.enterprise.application_server;fontStyle=1;fontSize=16;" vertex="1" parent="1">
          <mxGeometry x="414" y="-635" width="43" height="50" as="geometry" />
        </mxCell>
        <mxCell id="RScEIYHvd4wHRLP2RLor-62" style="edgeStyle=orthogonalEdgeStyle;rounded=0;orthogonalLoop=1;jettySize=auto;html=1;" edge="1" parent="1" source="RScEIYHvd4wHRLP2RLor-13" target="RScEIYHvd4wHRLP2RLor-54">
          <mxGeometry relative="1" as="geometry" />
        </mxCell>
        <mxCell id="RScEIYHvd4wHRLP2RLor-13" value="Relatórios de Gestáo" style="sketch=0;aspect=fixed;pointerEvents=1;shadow=0;dashed=0;html=1;strokeColor=none;labelPosition=center;verticalLabelPosition=top;verticalAlign=bottom;align=center;fillColor=#000000;shape=mxgraph.mscae.enterprise.application_server;fontSize=16;fontStyle=1" vertex="1" parent="1">
          <mxGeometry x="-250" y="-615" width="43" height="50" as="geometry" />
        </mxCell>
        <mxCell id="RScEIYHvd4wHRLP2RLor-66" style="edgeStyle=orthogonalEdgeStyle;rounded=0;orthogonalLoop=1;jettySize=auto;html=1;" edge="1" parent="1" source="RScEIYHvd4wHRLP2RLor-17" target="RScEIYHvd4wHRLP2RLor-57">
          <mxGeometry relative="1" as="geometry" />
        </mxCell>
        <mxCell id="RScEIYHvd4wHRLP2RLor-17" value="Sistema de Gestão" style="sketch=0;aspect=fixed;pointerEvents=1;shadow=0;dashed=0;html=1;strokeColor=none;labelPosition=center;verticalLabelPosition=top;verticalAlign=bottom;align=center;fillColor=#000000;shape=mxgraph.mscae.enterprise.application_server;fontSize=16;fontStyle=1" vertex="1" parent="1">
          <mxGeometry x="980" y="-633" width="43" height="50" as="geometry" />
        </mxCell>
        <mxCell id="RScEIYHvd4wHRLP2RLor-67" style="edgeStyle=orthogonalEdgeStyle;rounded=0;orthogonalLoop=1;jettySize=auto;html=1;" edge="1" parent="1" source="RScEIYHvd4wHRLP2RLor-22" target="RScEIYHvd4wHRLP2RLor-59">
          <mxGeometry relative="1" as="geometry" />
        </mxCell>
        <mxCell id="RScEIYHvd4wHRLP2RLor-22" value="Usuários" style="image;aspect=fixed;perimeter=ellipsePerimeter;html=1;align=center;shadow=0;dashed=0;spacingTop=3;image=img/lib/active_directory/user_accounts.svg;fontSize=16;fontStyle=1" vertex="1" parent="1">
          <mxGeometry x="414" y="-144.25" width="50" height="48.5" as="geometry" />
        </mxCell>
        <mxCell id="RScEIYHvd4wHRLP2RLor-38" value="&lt;font style=&quot;font-size: 16px;&quot;&gt;Predial&lt;br&gt;eSocial&lt;br&gt;sped&lt;br&gt;Portal&lt;br&gt;PortalMob&lt;br&gt;Bicto&lt;br&gt;Dpessoal&lt;br&gt;Rps&lt;br&gt;&lt;/font&gt;" style="text;html=1;align=left;verticalAlign=middle;resizable=0;points=[];autosize=1;strokeColor=none;fillColor=none;" vertex="1" parent="1">
          <mxGeometry x="677.5" y="-200" width="100" height="170" as="geometry" />
        </mxCell>
        <mxCell id="RScEIYHvd4wHRLP2RLor-64" style="edgeStyle=orthogonalEdgeStyle;rounded=0;orthogonalLoop=1;jettySize=auto;html=1;" edge="1" parent="1" source="RScEIYHvd4wHRLP2RLor-49" target="RScEIYHvd4wHRLP2RLor-52">
          <mxGeometry relative="1" as="geometry" />
        </mxCell>
        <mxCell id="RScEIYHvd4wHRLP2RLor-49" value="Microsoft PowerBI" style="shape=image;verticalLabelPosition=top;labelBackgroundColor=default;verticalAlign=bottom;aspect=fixed;imageAspect=0;image=data:image/png,iVBORw0KGgoAAAANSUhEUgAAAEoAAAAyCAYAAAD7oU3dAAAPT0lEQVRoge2be3AVVZ7HP6e7b99HHjckNyGBkJCAAYICysMXFDCjxoICWQcVFcdVZhiUsdRx1tXRYcFlGWYpkdJiBEdd0XK3BB0ZZEhNzSaiRsVIsguSADKEEPIg5AXkvvt2n/2jQwhDkDxx/thvVed23z59zu9+z69/v9/5nV+ElFLy/7gstO9bgL+FaZqcPXuWgwcPsm/fPqqqqmhubsayLBISEhgxYgT5+flce+21pKam4nQ6r4hcfxdEhUIhKioqKC4upqSkhMOHv6W5uYlgMIRhGFiWhUSiCAVVVXG7XXi9XnJycrnhhuu59dZbmTp1Kl6vd/CElN8jIpGI3L9/v1yyZIn0eOIkCAlCqirSpSvSm6jJYWlOOTrLI/NGxsvsdKdMGeKQHrciHRpSCLu9pjlkQUGB/OSTT2Q4HB4UWYWUV95GSSmprKxky5YtbNnyNqdONaIoCumpTibmuZl4lWDMSCejMhV8SSYuh4kQYMYEpwMaNSclh0/EqDgq+fpAmOq6IJGoSUJCInfffRfLly9n4sSJKIoyYDJfcaIikQhFRUWsWLGCsrIyFEUhM83BjMleHpwfx3Wj29E1E8uyCZWIi/pQhH1YqBxvdPPun022F5/hWF0YwzAZNWoUa9euZf78+ei6PiByX1GigsEgr776Khs2bKC2tpbkJDf/8MNEFv5AZerYKLoaI2YKeiOQpkqk0Dh03Mm24hhb/+znREOAtLQ0nnjiCR599NEBsV1XjCi/38/GjRtZtWoVoVCI/FEJLF2YyKIfmsS7wkRjgr5KIrAJQ9HZ/pmD9e8E+d9DbQC88MILPP300/32jgNC1KFDhygtLaW6uppIJILL5SI3N5epU6eSl5eHlJI1a9awdu1v8fvbufFaH//yExc35EcAA9O6+PXqCxQhQWiUH3Gx5s12ivacwev18uSTT/L888+jqmqf++4zUcFgkD179rB161bKyso4erSKtrbWzvspKT5yc3OYNm0amZmZrFu3jtbWVmZOTePffp7AhJGnMU0TSw4MSecgBOga7D/m4Yn1YUr3teD1etm0aROLFi3qe799Iaquro61a9eyc+dOqqurOwQU+IY4cTshFJY0tUU628fHx+P3+7k6L5Hf/bOX6/JCRKOxbg31QEFVVb6p0nlkbYAD357h+uuv56233mLs2LF96q/XAWdlZSVPPfUURUVFGIbB6Ox4br85gekTFUYNlzi1ECHDybF6hZJ9ksKSsxyt8duDqQouHczY4JIEdoR/TU6YJ++LZ9nqdvbu3cv69et5+eWXcblcve5PXbly5cqeNq6vr+eZZ55hx46PEMJiyY9yWPUzlTumR8nLNPAlxUiKhxSvRU5GjJsmWNwyzUVMDKHiaIDGpgjHT+nMmJxIgjuMHODX7m8hJYwYCgEzla/3t9LY2Mi4ceMYM2ZMr/vqcUQWDofZsGED27a9j6rCY/dlsPLhAPnZYZwOC5CYpiRmgmlKQOJyWOSNiLLqpwaP3JOOokDRnjbWvRMkbOi28R1kJHhiLLsjTE6Wl7q6OoqKiohGo73up8dElZaWsn37doSA++el8+iPLOJcRkdg2P0zUtpHgjPKLxYZ3DMnHdM0KS4NsveQA90x+ERJKUlLMrhztgeA3bt3c+DAgV730yOiTNOkpKSEI0eOkDsinp/Os8hIjmD18HdKwBsXY9kCGD40nuq6EB+XRbDQB9lS2YO7nRY3XWPidjmorDzI7t276a0P6xFR9fX1fPHFlwDMmuIgK90iZvZWYMmIoQa33hiPZZl8dcDir3UuO1AcREhACMnYbMHN1yVhGFH27NlDa2vrZZ/tih4RVVVVRWnpVyiqyrgcB4kekFbvBLaABI9k9mQHIPj2eJSDx2Ko6qDrFNKUpCVbzLjWjs6PHj1KbW1tr/roEVHNzc00NTUR59HISAGHJnu1HrOlBVWx8HmDgKClLcLJFhNF1eybgwSBRApwOUzGjDDQHRqNjadoamrqVT89IurEiRMA6KqJrkYQ9FKdOiCQJMULUlO8CEXF49Y6bMXAa5WmSlw66C43iupC1XQyUnXSfDqtbadpa2vrXX/fdTMQCLB582Y2bNgAgGWBPft904CYCdkZkk2/cnM24GbGRJNItLfG7vJQhOTTA8l89GmYk00BooaFKqA9KDh9JkI4ZFFRUcFtt93W48zCJZcwx48fZ+XKlbz//vv4/X6GDY1n0e1DWDIvwnBfFNPsmxYIYS93pFQQwuwgf+AghESKeO7+VZiPS89gmTG6m9iUFB/jx+czc+ZMFi5cyNVXX/2dib5uiWpqauK+++6juPhjLMtk1tRUVv4sjvHZ7ShK3zRKdP4ZfKiaxtMbnWz/yyl0p0KSNw6AYDBCIGgQCpu0B2NYFjgcDnw+HytWrOChhx66ZDrmIqKamppYvnw527a9j1NXuXdOCr+8XyXTF8KSlw4uvwtCQCQKLWcs/CHZ57zT5cbwuCDFq+J2QjCs4g8JPG4FVZyLxDXCMZ3GFot9RwRFpRE+LfdzqiWCy+XmrrsWsmLFCkaPHn1x/12JMgyD1atXs3btWsyYwQPz01n3c4Eqgn1exAqgrd3inV1RPvrUIGJIRL80S3Beo8+fSwmqIpgz3cE/ztVJS1Zsa3qRs7CvBXbu6tP9cfzmzbOUHzyLYZgUFBTw2muvkZWVdeGoXYnavn07y5Yto7GxkbkzU3npCYHPa/RLAxRFsmpzmK8qYjw8Tyd3hIbW9/zZJWFaUHPSYsvOCPk5Kr9c7MKbcPmsqaZK6tvieGWrxZY/thEIhlmwYAGvvPIKmZmZ59udO2lra+PNN9+ksbGRrGHxPLskgVRvW4+XKd1BCGg7C7u+iPLcwx7u/IED0xo8U3XzBBVdg39/O8y9t0uGeAXmZZxqzBSkJwX49cMe3K5hbPyvGgoLC9m8eTPPPvssHo+9Ruw088XFxXz99deoqmD5PUMYl3mmXySBTVRTm4kRk3jjwIiBadphQn8OS4KmCjRNdPxY+4gakJFi/6RItOfGwrIEbi3Eo3eGuLsgjUgkwhtvvEFhYWFnGwXsFMqOHTs4efIkedkJ3Dq170HlBUR1Oekv6V1x1i/Z9bnBh7sNak9ZF47TYbN6awdNC3wJEZbdqXF1XjINDQ1s3bqV5uZmoIOob775hvLycgDmzExiWIo1mKuKfkEI+PDjKE+9FOCfNgT4/YcRDLO/DsKGZUnGZAZ4aJ4DTVP47LMSKisrgQ6iysvLqao6htulM3uyxOm0/l55QhGw74hJTaNFQ7PFgaMmsdjA2D1LgkO1mDzWZHSWm4aGesrLy7EsyyaqpaWFYDBAzog4slKjKN8XTQLg8sGaHd3b5/3YgeoWppRkDVWZku8GYOfOndTW1tpe71xqdOQwBbczNigB4eUggANHY/zuvQiqJnhons7U8Vpn3qtr9DSYkJbAl2SRP9Keib17954nyupYcCV7PTi0CBKTK7be6ICiSP5UYvBeURQB6A7B9EkOYqbE7PAr6sDVXFwSEtAUk7RkgcOh097ux+/3X5g9+B4KWy5AMGyPb0kIhEBVBQ0tMXZ8EsMwYd4MjdxhgxCtXgSJ2+3E43Fx5sxZYrGYTdS5rebm1iCGIRBXSJuEsPW2u9BBCEBKCj+PsmJTmJgJbt3Dw3eoA+LhLgcpJVYXwRSgozRGUFVn4g8rV0QQRdhB4qVcuxB2gNrYLDvt1OmAgmVdiWlU8AdihEJhVFVF13Vbo9LT00lMTOR4fZBjJ72MTPczUKZTiI4Fq3reICsKHPhrjO27DSwJd92iMz63+1eqa4ronFO8FFMCewL6K2/YUKltksRiBunp6SQlJdkaNW3aNEaPziUaNfjLVxbByMBolSUhJUnBowuq6y00h8Cp2xsTu76I8eK7YV76zzC7PjeIGrLP/kMIcDhsB3DkhIUiBG69b50piuRkq2D/t7YHmTVrFtnZ2TZRY8aM4YYbbgSgsOQMNacGptJWSkhOVLjnNif/sSPCb7cE+ex/YgQjkkDofLum0xZGrBe7sV2gdOS6yg6a/OatMJv/EGHOdI3MoaJP2VNFCKrrTcoOBhBCoaCgAJ/PZ8umaRoLFy4kNzeX43UBthU7MMyBKRiWEh6Yq7N4jpODVSZ//CRCMHRhoNgf7RUCAiFJUalB2cEYd87W+fFcnXiP6PX6UlHAH9IoLtOoPxVh7NixTJgwASHE+fDgpptuYsaMGVRXV/Pa1jqmjMuiYEob/bVVUkJSgsKP5zqZN8OBKSE+TnTGRufadP3svBAXbot1XnX50rQgIV6weI6TewskQxIVdAd90iYpFb6sdPH6hy1IKZk9e1ZnmVCntjudTh577DHy8/PxBw3+9bVG9h529ts42gKApsHQFIXhqQpOByTFnTdJGT4VhwYZqSqqCk5dkDlUQVUgM1XB1WEJUuIlimIxOkvFqYFDg3SfwK1DWrIgw2eT1JdwUBFwqMbBurf9nD4TZNKkSSxevLgzH3VRzvyDDz7gkUceoampibycRH7/61TGZ7eiKn2bpe6gKtDYKvnT5wZGVHLHTJ10n6C5TfLef0dQhGDhLTppQwSnWiUffWYQDEkWzHYwPFUhFIXtH0cIRgXzpztIHdL71+wcbK8sqD2l84uXoejLkyQnJ/Piiy/y4IMPIjrswkVEGYbBxo0bWb16NS0tLWQP9/Dk/UnMvdnE5zVQkJ2bDP0J5M8Fm9CxU9jh9M7Zq4u+E+fH7K5dj8c9N3bHtpk/pFDyjZP174b4al8rcXFxPP744zz33HOd2gTdECWlRAjBpk2bWLNmDSdOnECgMHeWj58sUMnLjJLgEcS5BJpqXtFtqAvQxw1mSyqEIgJ/SFLf4uAPux28/kEj/kCE5ORkli5dyqpVqy6qT7/kBqhlWRQWFrJx40aKiouJRiIkxOlcN87FNVdpXDXCQUpiBN2h9s9t9RVS9npcaVm0hzSOnxRUVhmUHohyosEum5w8eTJLly7lgQcewO12X/TsZYtdGxoaeP3119m1axcVFZW0t5/tvKcqoDv1K7Y27Ar7fxp6N65pmkSisc5rRdG46qrRzJgxneXLlzNp0qRLPtvjquDKykr27t3L4cOHKSsro6KykpaWVoyoQR9qW/oNRQisXhpJVVGJi/eQM9Iu6x4/Pp+JEycyZcqUbrWoK3pdPm1ZFjU1NdTU1HD69GkMw/he0jN2/UIviVJVPB4PGRkZjBo1iri4uB4/+39RJ6U8XY910AAAAABJRU5ErkJggg==;fontSize=16;fontStyle=1;labelPosition=center;align=center;" vertex="1" parent="1">
          <mxGeometry x="-27" y="-1210" width="74" height="50" as="geometry" />
        </mxCell>
        <mxCell id="RScEIYHvd4wHRLP2RLor-52" value="" style="swimlane;startSize=0;" vertex="1" parent="1">
          <mxGeometry x="-170" y="-1065" width="360" height="220" as="geometry" />
        </mxCell>
        <mxCell id="RScEIYHvd4wHRLP2RLor-50" value="&lt;div style=&quot;font-size: 16px;&quot;&gt;&lt;span style=&quot;background-color: initial;&quot;&gt;&lt;font style=&quot;font-size: 16px;&quot;&gt;BI_Acom_Result_Dw&lt;/font&gt;&lt;/span&gt;&lt;/div&gt;&lt;div style=&quot;font-size: 16px;&quot;&gt;&lt;span style=&quot;background-color: initial;&quot;&gt;&lt;font style=&quot;font-size: 16px;&quot;&gt;BI_Acom_Result_Ods&lt;/font&gt;&lt;/span&gt;&lt;/div&gt;&lt;div style=&quot;font-size: 16px;&quot;&gt;&lt;span style=&quot;background-color: initial;&quot;&gt;&lt;font style=&quot;font-size: 16px;&quot;&gt;BI_Acom_Result_Stg&lt;/font&gt;&lt;/span&gt;&lt;/div&gt;&lt;div style=&quot;font-size: 16px;&quot;&gt;&lt;span style=&quot;background-color: initial;&quot;&gt;&lt;font style=&quot;font-size: 16px;&quot;&gt;BI_Aux_Tables&lt;/font&gt;&lt;/span&gt;&lt;/div&gt;&lt;div style=&quot;font-size: 16px;&quot;&gt;&lt;span style=&quot;background-color: initial;&quot;&gt;&lt;font style=&quot;font-size: 16px;&quot;&gt;BI_Datawarehouse&lt;/font&gt;&lt;/span&gt;&lt;/div&gt;&lt;div style=&quot;font-size: 16px;&quot;&gt;&lt;span style=&quot;background-color: initial;&quot;&gt;&lt;font style=&quot;font-size: 16px;&quot;&gt;BI_Dw&lt;/font&gt;&lt;/span&gt;&lt;/div&gt;&lt;div style=&quot;font-size: 16px;&quot;&gt;&lt;span style=&quot;background-color: initial;&quot;&gt;&lt;font style=&quot;font-size: 16px;&quot;&gt;BI_Oda&lt;/font&gt;&lt;/span&gt;&lt;/div&gt;&lt;div style=&quot;font-size: 16px;&quot;&gt;&lt;span style=&quot;background-color: initial;&quot;&gt;&lt;font style=&quot;font-size: 16px;&quot;&gt;BI_OperationalDataStore&lt;/font&gt;&lt;/span&gt;&lt;/div&gt;&lt;div style=&quot;font-size: 16px;&quot;&gt;&lt;span style=&quot;background-color: initial;&quot;&gt;&lt;font style=&quot;font-size: 16px;&quot;&gt;BI_Staging&lt;/font&gt;&lt;/span&gt;&lt;/div&gt;&lt;div style=&quot;font-size: 16px;&quot;&gt;&lt;span style=&quot;background-color: initial;&quot;&gt;&lt;font style=&quot;font-size: 16px;&quot;&gt;BI_Stg&lt;/font&gt;&lt;/span&gt;&lt;/div&gt;" style="text;html=1;align=left;verticalAlign=middle;resizable=0;points=[];autosize=1;strokeColor=none;fillColor=none;" vertex="1" parent="RScEIYHvd4wHRLP2RLor-52">
          <mxGeometry x="160" y="9" width="200" height="210" as="geometry" />
        </mxCell>
        <mxCell id="RScEIYHvd4wHRLP2RLor-77" style="edgeStyle=orthogonalEdgeStyle;rounded=0;orthogonalLoop=1;jettySize=auto;html=1;strokeColor=#0000FF;" edge="1" parent="1" source="RScEIYHvd4wHRLP2RLor-54" target="RScEIYHvd4wHRLP2RLor-59">
          <mxGeometry relative="1" as="geometry">
            <Array as="points">
              <mxPoint x="15" y="-50" />
            </Array>
          </mxGeometry>
        </mxCell>
        <mxCell id="RScEIYHvd4wHRLP2RLor-54" value="" style="swimlane;startSize=0;" vertex="1" parent="1">
          <mxGeometry x="-110" y="-675" width="250" height="170" as="geometry" />
        </mxCell>
        <mxCell id="RScEIYHvd4wHRLP2RLor-46" value="&lt;font style=&quot;font-size: 16px;&quot;&gt;Predial&lt;br&gt;eSocial&lt;br&gt;sped&lt;br&gt;Portal&lt;br&gt;PortalMob&lt;br&gt;&lt;b&gt;&lt;font color=&quot;#0000ff&quot;&gt;Bicto&lt;br&gt;Dpessoal&lt;/font&gt;&lt;/b&gt;&lt;br&gt;Rpa&lt;br&gt;&lt;/font&gt;" style="text;html=1;align=left;verticalAlign=middle;resizable=0;points=[];autosize=1;strokeColor=none;fillColor=none;" vertex="1" parent="RScEIYHvd4wHRLP2RLor-54">
          <mxGeometry x="150" width="100" height="170" as="geometry" />
        </mxCell>
        <mxCell id="RScEIYHvd4wHRLP2RLor-72" style="edgeStyle=orthogonalEdgeStyle;rounded=0;orthogonalLoop=1;jettySize=auto;html=1;strokeColor=#00FF00;" edge="1" parent="1" source="RScEIYHvd4wHRLP2RLor-55" target="RScEIYHvd4wHRLP2RLor-54">
          <mxGeometry relative="1" as="geometry">
            <Array as="points">
              <mxPoint x="230" y="-670" />
              <mxPoint x="230" y="-670" />
            </Array>
          </mxGeometry>
        </mxCell>
        <mxCell id="RScEIYHvd4wHRLP2RLor-73" style="edgeStyle=orthogonalEdgeStyle;rounded=0;orthogonalLoop=1;jettySize=auto;html=1;strokeColor=#00FF00;" edge="1" parent="1" source="RScEIYHvd4wHRLP2RLor-55" target="RScEIYHvd4wHRLP2RLor-57">
          <mxGeometry relative="1" as="geometry">
            <Array as="points">
              <mxPoint x="1030" y="-670" />
              <mxPoint x="1030" y="-670" />
            </Array>
          </mxGeometry>
        </mxCell>
        <mxCell id="RScEIYHvd4wHRLP2RLor-76" style="edgeStyle=orthogonalEdgeStyle;rounded=0;orthogonalLoop=1;jettySize=auto;html=1;strokeColor=#00FF00;" edge="1" parent="1" source="RScEIYHvd4wHRLP2RLor-55" target="RScEIYHvd4wHRLP2RLor-59">
          <mxGeometry relative="1" as="geometry">
            <Array as="points">
              <mxPoint x="648" y="-460" />
              <mxPoint x="648" y="-460" />
            </Array>
          </mxGeometry>
        </mxCell>
        <mxCell id="RScEIYHvd4wHRLP2RLor-55" value="" style="swimlane;startSize=0;" vertex="1" parent="1">
          <mxGeometry x="504" y="-675" width="260" height="130" as="geometry" />
        </mxCell>
        <mxCell id="RScEIYHvd4wHRLP2RLor-37" value="&lt;font style=&quot;font-size: 16px;&quot;&gt;&lt;b&gt;&lt;font color=&quot;#0000ff&quot;&gt;Predial&lt;br&gt;eSocial&lt;br&gt;sped&lt;/font&gt;&lt;/b&gt;&lt;br&gt;Portal&lt;br&gt;PortalMob&lt;/font&gt;" style="text;html=1;align=left;verticalAlign=middle;resizable=0;points=[];autosize=1;strokeColor=none;fillColor=none;" vertex="1" parent="RScEIYHvd4wHRLP2RLor-55">
          <mxGeometry x="160" y="10" width="100" height="110" as="geometry" />
        </mxCell>
        <mxCell id="RScEIYHvd4wHRLP2RLor-74" style="edgeStyle=orthogonalEdgeStyle;rounded=0;orthogonalLoop=1;jettySize=auto;html=1;strokeColor=#FF0000;" edge="1" parent="1" source="RScEIYHvd4wHRLP2RLor-57" target="RScEIYHvd4wHRLP2RLor-55">
          <mxGeometry relative="1" as="geometry">
            <Array as="points">
              <mxPoint x="850" y="-550" />
              <mxPoint x="850" y="-550" />
            </Array>
          </mxGeometry>
        </mxCell>
        <mxCell id="RScEIYHvd4wHRLP2RLor-75" style="edgeStyle=orthogonalEdgeStyle;rounded=0;orthogonalLoop=1;jettySize=auto;html=1;strokeColor=#FF0000;" edge="1" parent="1" source="RScEIYHvd4wHRLP2RLor-57">
          <mxGeometry relative="1" as="geometry">
            <mxPoint x="770" y="-50" as="targetPoint" />
            <Array as="points">
              <mxPoint x="1230" y="-50" />
            </Array>
          </mxGeometry>
        </mxCell>
        <mxCell id="RScEIYHvd4wHRLP2RLor-80" style="edgeStyle=orthogonalEdgeStyle;rounded=0;orthogonalLoop=1;jettySize=auto;html=1;entryX=0.329;entryY=0.006;entryDx=0;entryDy=0;entryPerimeter=0;strokeColor=#FF0000;exitX=0.416;exitY=0.002;exitDx=0;exitDy=0;exitPerimeter=0;" edge="1" parent="1" source="RScEIYHvd4wHRLP2RLor-57" target="RScEIYHvd4wHRLP2RLor-46">
          <mxGeometry relative="1" as="geometry">
            <Array as="points">
              <mxPoint x="1210" y="-760" />
              <mxPoint x="73" y="-760" />
            </Array>
          </mxGeometry>
        </mxCell>
        <mxCell id="RScEIYHvd4wHRLP2RLor-57" value="" style="swimlane;startSize=0;" vertex="1" parent="1">
          <mxGeometry x="1110" y="-675" width="248" height="135" as="geometry" />
        </mxCell>
        <mxCell id="RScEIYHvd4wHRLP2RLor-39" value="&lt;font style=&quot;font-size: 16px;&quot;&gt;Predial&lt;br&gt;eSocial&lt;br&gt;sped&lt;br&gt;&lt;b&gt;&lt;font color=&quot;#0000ff&quot;&gt;Portal&lt;br&gt;PortalMob&lt;/font&gt;&lt;/b&gt;&lt;br&gt;Gpsdbi01&lt;br&gt;&lt;/font&gt;" style="text;html=1;align=left;verticalAlign=middle;resizable=0;points=[];autosize=1;strokeColor=none;fillColor=none;" vertex="1" parent="RScEIYHvd4wHRLP2RLor-57">
          <mxGeometry x="148" y="5" width="100" height="130" as="geometry" />
        </mxCell>
        <mxCell id="RScEIYHvd4wHRLP2RLor-71" style="edgeStyle=orthogonalEdgeStyle;rounded=0;orthogonalLoop=1;jettySize=auto;html=1;fontColor=#0000FF;strokeColor=#0000FF;" edge="1" parent="1" source="RScEIYHvd4wHRLP2RLor-58" target="RScEIYHvd4wHRLP2RLor-57">
          <mxGeometry relative="1" as="geometry">
            <Array as="points">
              <mxPoint x="1234" y="-840" />
              <mxPoint x="1234" y="-840" />
            </Array>
          </mxGeometry>
        </mxCell>
        <mxCell id="RScEIYHvd4wHRLP2RLor-58" value="" style="swimlane;startSize=0;" vertex="1" parent="1">
          <mxGeometry x="1105" y="-1065" width="250" height="130" as="geometry" />
        </mxCell>
        <mxCell id="RScEIYHvd4wHRLP2RLor-47" value="&lt;font style=&quot;font-size: 16px;&quot;&gt;Gpsdbi01&lt;br&gt;&lt;/font&gt;" style="text;html=1;align=center;verticalAlign=middle;resizable=0;points=[];autosize=1;strokeColor=none;fillColor=none;" vertex="1" parent="RScEIYHvd4wHRLP2RLor-58">
          <mxGeometry x="150" y="48" width="90" height="30" as="geometry" />
        </mxCell>
        <mxCell id="RScEIYHvd4wHRLP2RLor-59" value="" style="swimlane;startSize=0;" vertex="1" parent="1">
          <mxGeometry x="527.5" y="-210" width="240" height="180" as="geometry" />
        </mxCell>
        <mxCell id="RScEIYHvd4wHRLP2RLor-69" style="edgeStyle=orthogonalEdgeStyle;rounded=0;orthogonalLoop=1;jettySize=auto;html=1;" edge="1" parent="1" source="RScEIYHvd4wHRLP2RLor-68" target="RScEIYHvd4wHRLP2RLor-52">
          <mxGeometry relative="1" as="geometry" />
        </mxCell>
        <mxCell id="RScEIYHvd4wHRLP2RLor-70" style="edgeStyle=orthogonalEdgeStyle;rounded=0;orthogonalLoop=1;jettySize=auto;html=1;" edge="1" parent="1" source="RScEIYHvd4wHRLP2RLor-68" target="RScEIYHvd4wHRLP2RLor-54">
          <mxGeometry relative="1" as="geometry">
            <Array as="points">
              <mxPoint x="10" y="-690" />
              <mxPoint x="10" y="-690" />
            </Array>
          </mxGeometry>
        </mxCell>
        <mxCell id="RScEIYHvd4wHRLP2RLor-68" value="" style="shape=image;verticalLabelPosition=bottom;labelBackgroundColor=default;verticalAlign=top;aspect=fixed;imageAspect=0;image=data:image/png,iVBORw0KGgoAAAANSUhEUgAAAD0AAAA3CAYAAAC/+UKPAAAZrUlEQVRogdWae5wkVZXnv+feGxGZWVnP7qp+A03z7Aa2oUEEHBBEAUUBYdZRfI2OjDru+mB2dZ1ZZXVRd/zgjq9VF9Rh0JHxjasiCAgNyFOEpnk33UBLd1e/6p2ZEXHvPftHZHVX6+igH2b97K1PVWVkRGbcX5xzf+d3zzmiqsofcUQiIKCCAgoYPKIRMGgQjESijXgUKwk22O6FSjARg0GQ53xP928D5bkPEw0qUEpECQiGEC0Wi40KeKIxTEtCBOoxYPGAAI6Ixfye9/yjgwYQhUQiSoknZQJh+2SB73RYPtJHS+Gnv9zI/Pm9rJzfx341wagQxBD/gPv98UGbQKxMjeDoWMPXbnmItU9uY95AnXdfcCLb2vDddaP4fBOvf/FKeg5eBFFJDJioOANW/j9y76glE94hxiFYxhS22yajvUvYZSJXPzrJjtEOo7XFqJlhqtnL08Dt922kEQrOfcFhNH7Pe/7xQSPMWMtX1j5JEOGUEw6g6O0jH7W0oueG+zaQkNLOFgLCd3/+NLcO9bLhqV0Mx2kkn+SNp7zg97rnHwR6lu5l9kDmnJB9zu65WGXO9d1jAEvKtb98hmu3jpM7w83fvgNfNEh7luDF4ozDGsGXOc5ZJtWwdUeHVnMxmR9jxRGH7GF9Zm8vc+f4a/N57qAjc+Pa3NfVV5m9ZzR0T1gUqUKP7DspjRGco03AhQ6rD1vM0DPb2KJNWjRINCWZ2s6qBcopxyxkWf8QT+0O3LbuYTaOT9NqLsJay9IF85g/P2NrVAYFegDrC0iSbhwA0bKan+yFKs8tTv/LoEUVQVAxe45nR6AyrY2KCoSupY2v4m+w0KGy+M4oXPnoONc8tB21NYZ9mwuPPYCX7JcxvxuSWwLtALc8tZsr79rIzvoiTDHDkf3Q3rWToxb08uaTj2RxUj14FVd5lyoGBdkb2P4VS+8NCDLn7yzqShDsdRsV2fOJPfBFiHOJ1RhUhLIL4nM/uotOzzCP7PKkoY6ULV65ZgFn7+8Yih7pADVPRkafFc5YMUSr8Fxxz3ZaPSOsm470SeT+p7YQTlNUpAJJJGJApPK4uVP4XZD3dYGuj6ow+wPyG2t19jFYDdiuqwtgUEz3stB9nEWpPLh7kttGJ9kpDcoQWdF0vOyQPvqYRsjRzEAsIEYkRnpVedHBIyxvCpmfxprIklqbs48/lD6hWl5qiFLN0GhEZpfccwG9D+A5Vg0hgkKIFYVoLEFLhNgFGBEtEc0JGjBECCWiHpGISIXeEFhQE5yDiUQoa579FlnmiWJViTYjV8DWCBgEg1VhyMEBAxm9cQbT3sl5Lz6a049cQizLarl1f6uZR9B9JczvBC2/9irESOE9xgheFTFCjLFracWr0FZoqyHgUCylKlHBiEAIEErKkIMqvanl/a85nbOOWUlZ5oh06LNKTQ2WJgSHtYZAihXBaSDRggRIa47SJPikyfXrn+Unj2zHJwmqikjEdPlFsSB2H1zPOWQpIMbgrKEIEWMMQSolpBHyaHl0yzjjqgSxJETSULJ8pI/Beo1Eq/ARjSCmYieNMFNEWlNtakWkN6kxvb1D6YVoHKVCVEgErCpoG4wyQ8oz4yVt10chCfdtneHZDU9x/IHDDKWCxBJjhIAliHR95A8ErQJlCGAsHkUiWJSAoS2WD3/uG9z1zAwd14uop8ePc/l/fR1/supAnDGgKV6UPFZegoXL/ukmHvVNas2l5MFy//YZHu8EVvUY6oni1VQLSxSMoSUJj096No4XaJLRKMcZcIF5aWAoheA9ztk97m204hLmyFRTLfwAqtXTZ5aTFFWDqqCqeFV2l7AtGq68/na+8bNf0EJQIwQRJgPs6DhmshEm6yNM1hcxmY2wqwgUsXL/AGydzvngZ/+J+7e3mVDI64Ok9TqmnMQ7+FVtgM+tfYzRCGUsyCgxKIowbRpsCpav3bqB3PaQ+RlOOaDGR//9kVx8zgvpBZyloswui1dbkljh68YWt1ci6Z6QU12olNHgBIJ6ZsRx51bP+z55OVNecFqybMUKTlrWhxrLZAem2hGVFDUBowFMyqZRX93WtymTOl/44eN89a5pvvHA1zntmOWcccGp+DIyMOD48vd/wWS2hEd2Zvy37z/EG08+lEPmJ6RA9MoDEyVX3HIfW4t5FLaXHlPSFMMKVRrNhEQE1HXJK1ThSgTUVO910bnKwyvAMEtZ1VMxxuNFmMqF9112BT98aIw4sIJW4anHgs9c8WMO+i+vxTZgQmHc1+i4BhhLUKVlU7bPGLYE8EmdW9dv42vX/gzbu5hSlGt/vp777vslH3736zl42UIGBzIm8nFiM2FdnvKhW7YTWpPUE09fYRizymTfIoJmxLwgSRvc9NgWVtlpXnHcqsp1hS6ZzdEPVBrfdtE5L3uhGmYDU2XpSs0YJHFIzzC5Uzr0ECRgTJubN43zti/ezPTkDp7+1QRTDFaCIOaYGEgVrvrBWq67+eccdtAyHn5qCztcP2UQRAz1nkUUU5vZbyDhpts2MDod0JojTD2Lun4mvSWpNxiXjNy3mZESDCytdTj+kPmsu/8+UpdwxKGHICJzDGaYG3v2iqOuYcuuDDVdsKIRleqD4iv11BZYt7vNWf/xi0z27U80DkKOaAYCEiaxahHTxBNBZkg04GJCEQ1YRYn4xIJW4UPUkiGctEC58kOvYuPunC/c8hjRdLjgpau586kJbn90FxAQdQy0c2Zqjhk8r161mNcfOcKuXZPkJmXVQI0MxWjs7qv3tXTAoEQcClic7fq5aIQyh8TSCo4CaFrBlIHMWfbvr3H8YYu57VctWjQR1yDmJdZ4rHgyI2g5gyOgtl3lvDQhMQ5vDWX0YBLwOSBI8Pgy8B8uOo9BU3LcsGXeGYfiI8zvqzHem3OHpmiY5p1nrmRx3fKZ7/wCNDD59GZ6Dx9mwVCTUgwJYBFEbNeRZY5lZ2Vp2GNpV/2L1ZvO0FHHllbgWzfczUtPPJKDFvSBRtQZlu+/H7dvfByXpfjcUpOALcep2zaLmr2sWn4AByxp0hyodMi27cqjG7ezacuzTIaCdpHhXZ2gQmINCQGXGKIoRi09aco9D2zkF5Pj9B90EMf0w8yuUV40cBQNA6ce0Eder3PyfoP0iJBGTypSLeTfGLJn/1qt4L17YPGqWmnUEu8jEzbj09+7ky9e83MaqXLmn6zh7FPXsPaBZ/jSt26mnY7gvaFhoV7u5pQ1Sznz5FWcuGo/5jnoMQqxQMTRUktpYOu2Njffs55v3rKOR3YprbQfVahTsjib4pMXv44tW7fzrRseYv3GbfS7gn/85EXsN5CS+DZ9RjFFxrQzRBfpVci0q+S1BJPN2QDob4Bm1rBSubfkqmoASySPsGHG86q/voJf6XyMqWGKGTLrmSw8sTYAERLTYVGW89/fegYvPWIRdROpodgi4FwJJidSx1NHQqW9S+N4oiN84pt388+3P4VNG/h8Eo2O3lSxscVMFArXJI0zXLB6hM++8yx6KmrElUKwJZgWNiZE6aEQqHW3t4iiXcAyS2a6l9pU6Lq5YFINOC0ICBPGcOlXb2BrkVGaOrkktF3CtFpc2o+JTaAf7x1jZYkaTybQEwJZmWMdFDajLX0oKUkZEK0eaLUF8JQhoZkqZWuMWOtDraXlhYmQEaQGpBQM8OP7d3Lb4xN4D04juNmkbw1waFRsGZEoaFSUklYQ8gCqgVAqkUiIAdWI7EkbVwy2R6KNjZdseOxhrG+Txk5FOmrBZIRQkDJGrxsjM552J+VvP/sjfrJ+C+MmYUYScuOY8pbJwjCeQ+GUthPGgNGgXPrVm7nhjnW0Jlr0uQQ7NkZNIl4spL0ENVjfItE2STHN9775HVJbCY4YhUhKJ1iCcaiJmEQJUnSDsyc1gHhirLI1PirGUDG57lXfEjXMSjJa0fBMS3jHx/6B+7cWdFwfQXoIQWi4KezMRi7//MV88G+vYnd7gE4hNGScD7/rTE44dIRvX3sfN9z+JJt3t3CZsmJZH28756WsOWKQD/7PH7P2iV1MlUJvmOQN55yMxMBXf3Q30/XFRE1IXEm9vY3+OMlbXnkq73n10fQTUTGV1RA8gtVIorHir6gEScFEbKzcPA+eRFLs7LZSLepkj/yWe3/5S/13q1djqfbEk4Vh0qV87dZNfOLrtzEV+8E4ev02PnDhCVxw2ipmQuBN7/saT043ya3g/A6aicf7BE8/XmoEU2K1TY8PpIlhqlSKpI5pb+c9FxzHu849nulO5Pz/9AUeaY0Qs35sOcaakcBl772AI4ZTGhpJ6BCIKEJH6uzGEIB6BBeVEKGVVJmMZBp6e6CD4qIwZBQTPNikWs0CV111FS4CHrAqxE6b3lqTGA1nHL2cy66+HfAYLUjzSS588UoWA4UVrvrEa3nzpd/h4R2Kd0PswmEyC6FAtINVCJownmUkRvFa0nAlbzn/ZC4+7yiaCgN1wxvOPpWPXH0nHWli1HPM4QeyYiilptV2UqhhFQoVNreUy753MxNRcGGG1Ues4JkdHTZPTSA2ZWjHs7zhjWdx9Q23cVD/MH9+2tH0WoOTiOtuLh9//HHMqqNWEyLkWNq1QcY1pbTwwEOP0So9SklqOpxyzKEMIVjvqcc2y3qEd732ZGphAlWLxiaRFKWNhDFsLEAtwaYUYjHWsWigh3ecexS9GqmVLXyunHPqSoazAi1mMC7hngceIbcwCYyLZQKDVwNW8NYwFRMOOPQgznzpCaxesZBTjjuQBQevZGfZz+kvOY3eesaENmjHFNMVLXZWhwAf/ehHcZmJFBiuWfsA92wYZUcnZWyqzebRUbypIzHSY0teftqJJBZEAyoJUYXv/vDGblZDSWWaPr+T9174Ek48Ygn5TIcrr/kF339wB+0gkKRsG93FLXds4C0nLAXbJjUZvViWD/exdTRQBMOT44E//8h3mN+sMa+3h/mNwDte/WL6rK0YXApWLso4fdkAw7TJJePJHZEtmvEnywcorZBpQhYTejykomAENXOyoUY9qgnX3Hwv120smbTDiEvRok5M69RMCZ0Jjl41SIEnTTwd6oxOGdY/FZhxQzhyGn4Xn774Al5++Ag9RPxwHyvffRrPfuz/cN/G3UyGBuLq3HzPw7zuhP1pmBqKoSawcF4PMjqDJr1MkXLrpikS06Fuxqm3nuU1Z51EVreUFjpSYypYigixm9Y1OoXECZoOOgK5LchdILfgRDEIdk8GE0wIEW+gcA3ytBdfH6SUBr42gI0FRVnQqA+QCSRiKL0HjWza1mGsqKFSJ9qE/sEmq1cuoEbAxAKJkCicf/pKvJ9GsgbeJmwdmyJIgoYaiQYSYGSwDxtL8CUhGkJtkE4yyLjP6NheCiwNIFUoXJMf3j/Gh67+Kbc+vYPcWJxT8hhpA9pNOERTUsre/Pvc4dRllAgBJdEcU4wTTQIhYLVEM4MPkcxV0j2RHhyRtGYx2iLRjFiWGCxWqoI6YZpEHEYStOhgXJMYUhKdJJGCoGCsIYQ2xlhUfZV0kG6I8YpgcEYIQbF1i1PIIhg/xQH7L2DlwOEsGB6sCC9ExNYpDTgRsugwoazmExViALs3OWhEq3y2KzvY1m6SYpzET5NSkJseokmJZYtOXrG8Godi2G8wYSTr4MoJGjYwvnMXdz2wnbZmxKSJNwavcOPt6wlFpYhsOcOiwT5MpBIbtk6JsH1shkIyMI6aU1I/SVaMkcVpMt9GvNIBJlF66HDyiPKmVcs4uCep8uEqZLFNAjgFoqe0NVpAKQZjfiMbqtSA809/IQsX/4pNO6fYMdlhx2SHTUWGBkM0cP+Dm1nygmVkAkZhQVPZf9lCnnwmp6ROx47w/s9cw+TbzuHYw/pBO3zqH27kZw9uRWrLMD4n1ZITjz2Kuq3y95JW4nDL7g7B1iuZOLOLo5c06E0i8waHWLHgUEYSg6UiJK9CER1tBY0pzggmZiTR0+UsEq0xE3rYHSFRIbNunwyoswg1lHNOWskrTlxJS4QCuP6uJ7joS3cTTYNCUq6/80HOOm4pVj0+Rqx1XPCas/npJ74D1mCyeeyMTd77hRsqQaGemGbkvQdAqGFjzn77LeWkEw8moiQuElTZnVs2bRsj2CWgnkNGGlz1sQvpV8VJxQspkCnUvQIZP7h3Fz9Zu44zVy/iVccdVslYKehItVcuUR7ftoNLr9zE4QPCe859MQNz1rUTFIunrh6fl9TTHiZKOP7Q5QxltzMeAjO2xq0PP0uuoBIpjGO7wucvvxqrSj3JaLcn8DaD+gB58GABK+Dq0OqgMWfjs7u5+vr7effLVkNZolnKj9euZ6I0CAFnPWtWHkgfMAAkvg2ilRe0AyOJ47TDlzEhDmQJQ8N1LHDkUIPewxfTFEhUOWnpEBO2RlK2WGzaJJFqPnvdu8qHoRFjhAJFM8f1tz5CCB6DUEjCaGjy5e/fz9vPO5rdCm/9m6/y5JYpkqyfpJxCfAcfUkLWh4pF1KBFh8SP0xc9rfYMZSPhf/3zjfQWnjeffSwdlMu/fxM+HUGxWEoefmIDG3eu4aCBhGHj0NihiIJLE/otvP4Fy3BS4OlDu6x+2pIGYemBJBQIhre+8EBmTLXBbGrElh2wtT2g7SWXfPgSFUOUhI7J2DCh/NVl3+Ybtz7GtG0SgkOtIdgGGx5+iMPWHMnFn7qWB7e2MUmNppT85zedwbv/7AQWNhJkZhTb2smiJOfkwxbyl684ig+85oWMbZ/g8R1TdNwg6x/aREtr/OSBzdzxyE7apokmNdTnTE9P8+Ob7sLbjMMOXYx4ITGCFYMXqJFTix0y9SQmI4kWExWVgtwkRI1kolgNiIBIJLHJPnVLiaoauvr7mfE2b/ybz/FQex4zyQgqAatCsB5yR0NnyNI2E2U/imc47uAjF72Sc0/Yn55uZbATLHmsWLThIDURE2BLHrno8ju4cf2zZCqkoaDjDF4cuDreVzUoKxHrO/T7Mc4//kD+7h0vp0dLRC257YYyD1GFYJSsqzA1gxkgRUh9AKOUYhAx2H3L05UKt0BKZKS3zsoVywBQUwPbQ/SepOiQJTltV2OM+UQtmJcVXPpX53L+8fvTF5UmQjMIQwaGUxjMoGYCGQFnShbUhb//y5M477ilqHgmXY2Oq1eViHw3qU6DzfC2n2hSMu1wxsnH4AGMAyOkWBIEYwXrqPbaTiCrEoANERKp6BljccZgZV/AUEWf2Z49Mqu8/Q2vZH6Sk5a7SfJxmqZNU1s0YhtnFAKYtIZtDJD21IhKVb0koiYgUmJDgYs5joDHUpqU3Fg6KoyMNHBOUAMSPJSeZqNBoiWmmMLFNqmf5pTVB/KiVQupzza1yJwWgOpwz+vZY8Pc9369ZWDvsB++5JJLquuEqNDsSZmYyXnikfUM2RanrFzIh951AanmPPzIBiRrEBRijNx03Y1s2z5GY2iQWm8v0VlKsRTGEnEEsUyqsHnSc83dT3Ppl37I2vs20gkWrMWlGQM6wac/cB5HLu5lcnQL5cQow0zy9x94EwtToSaxm8P+l6b/hw2Jqt0uTFCN5Ajb2vD1713Pq172IhbP6yE1MKZw6VV3c/XP1qGNIfJOCxGH1UgtTjDcC0cfvoJlixexaHiY0Gqzc3Q7D254moeeHmU8ZBS2QalgnSOixKD85ON/yrHDjpRI2xiuu3MDM+Nj/NkZx9FLIPgSl9SeV9AO5pRzBGrA0obw1xeeATGSSUFUx3QUtjzzFFGFMijeC6Y5jyIIbeljupjmibs2Y9NRRCENEaMgaZ0Zs5DoMtQ4rICPJeLbJFao0aZPU2xoUXdNzn3hwQDUuv0ELsmeV8BQ7TTnVPSq9GlCpKYRC3gS2mIY7xSsXbeJTjaPQnvQxiChNQ7FTmxnDKOKrTXxpkFp+2i7AVquj+mYkqQpmk8hZYsQAupSsBmJKP/jihvYYTKmbT+lpN2MJ92N/6xJnt9RfaN267e6b2+JUtWe8wCf+spPcX0jBE0qkoiehekEZxzkOH6xMJhvpzd0yGKsesVEsBJo6jiD7ac5/+j5HNbfoq7TaFFWxZcQuO/xZ7j3qTGCtXsItZpU7M7h+R+uakLpVgbEEGb7hkRIQgcVx1iubPvVZlKTYSnAt6npDIcMFXzmfedC6nhiR8nb3v8Vclvr5tkVtOBPT17Fxa9Zw6AzXHfvBi7+/LXktToaAkXeIjMdxjZvo7G8H0dBLMG4hKp3zRLnsvLzBvrX3GePnbXqMQFlXs3x5Y+/nbWPjPJ3//t7bBubIip86B1/wdIMClHiQEKz1mFXKFFbrUMTIoct6WNRZqj7nFcdexDrzlzDP153L1YDpx9zEB980+tZPtTARV91D7lZiA7EPM+reRa0CHPV+D6PQBxCJQMHgZcdvpA1H7+IH9x0D5r1sXr5ELUYSCykKEMNx5aJnGAaSFRqZc68psFQCQkh8hdnr2F851bOPfNEXnTwQpp0BYU4fr0F5vkNVHNB/5ahAkENIlWboUOpA4sblje+7FjEObIAaFXfH0hgODH0tceoW4+Jnno5zry6xQLRV/1i+/VlfOydr6ZmhNQr7o/Qh/xbe0MV6LaSdovZHoJSBk/iEvLCk2YZGiNihVY0PPzsGLvKavPiNJDFgkMWN+mv1brJh4hq2a00mKoXRMxvKbX+243fCbpi07kdOnS7dKCqAQbEKFEDUSyelLK7QFy38h99wNm0+oQqIlUlBbW0WpF6szG32+n/yfhXuoBnq/d7Y+a+LYiKsLfvcu43yZ7qP0CC7mlzCSgRlYRAxSbPfyT+3eP/AoFWgP0lX/zrAAAAAElFTkSuQmCC;" vertex="1" parent="1">
          <mxGeometry x="-20.5" y="-790" width="61" height="55" as="geometry" />
        </mxCell>
      </root>
    </mxGraphModel>
  </diagram>
</mxfile>
